<svg width="70" height="19" viewBox="0 0 70 19" fill="none" xmlns="http://www.w3.org/2000/svg">
<path d="M28.56 2.5V4.32C28.08 4.09333 27.5667 3.88 27.02 3.68C26.4733 3.48 25.8 3.38 25 3.38C24.3067 3.38 23.7467 3.54667 23.32 3.88C22.9067 4.2 22.7 4.66 22.7 5.26C22.7 5.75333 22.82 6.17333 23.06 6.52C23.3 6.85333 23.7267 7.21333 24.34 7.6C24.7667 7.88 25.2733 8.16 25.86 8.44C26.4467 8.72 27.0067 9.04 27.54 9.4C28.0733 9.76 28.5267 10.1867 28.9 10.68C29.2733 11.16 29.46 11.7467 29.46 12.44C29.46 13.44 29.1733 14.28 28.6 14.96C28.0267 15.6267 27.2267 16.0867 26.2 16.34C25.72 16.46 25.2267 16.5333 24.72 16.56C24.2267 16.6 23.7533 16.6067 23.3 16.58C22.8467 16.54 22.4267 16.48 22.04 16.4C21.6667 16.3333 21.3733 16.2467 21.16 16.14C20.88 16.0333 20.6933 15.8667 20.6 15.64C20.5067 15.4 20.48 15.18 20.52 14.98C20.56 14.7667 20.6667 14.6067 20.84 14.5C21.0133 14.38 21.24 14.3733 21.52 14.48C21.8 14.6133 22.1533 14.74 22.58 14.86C23.0067 14.9667 23.4467 15.04 23.9 15.08C24.3533 15.12 24.8 15.1067 25.24 15.04C25.6933 14.9733 26.0867 14.8133 26.42 14.56C26.6467 14.4 26.8533 14.16 27.04 13.84C27.2267 13.5067 27.32 13.1267 27.32 12.7C27.32 12.2867 27.1733 11.9333 26.88 11.64C26.6 11.3333 26.24 11.0467 25.8 10.78C25.3467 10.5133 24.8333 10.24 24.26 9.96C23.6867 9.66667 23.1133 9.31333 22.54 8.9C21.9667 8.5 21.5 8.06 21.14 7.58C20.78 7.08667 20.6 6.44 20.6 5.64C20.6 4.41333 21.04 3.5 21.92 2.9C22.8 2.3 23.92 2 25.28 2C25.6133 2 25.9333 2.02 26.24 2.06C26.56 2.08667 26.8533 2.12667 27.12 2.18C27.4 2.23333 27.66 2.29333 27.9 2.36C28.14 2.41333 28.36 2.46 28.56 2.5ZM33.68 16.42H31.7V9.44C31.7 8.97333 31.68 8.62667 31.64 8.4C31.6133 8.17333 31.5067 8 31.32 7.88C31.2267 7.84 31.1133 7.8 30.98 7.76C30.86 7.72 30.74 7.7 30.62 7.7C30.42 7.7 30.2667 7.64 30.16 7.52C30.0667 7.4 30.02 7.26 30.02 7.1C30.02 6.96667 30.08 6.84667 30.2 6.74C30.3333 6.63333 30.4667 6.58 30.6 6.58H32.62C32.94 6.58 33.1933 6.7 33.38 6.94C33.58 7.16667 33.68 7.39333 33.68 7.62V16.42ZM31.06 3.54C31.06 3.18 31.1933 2.86 31.46 2.58C31.74 2.3 32.0733 2.16 32.46 2.16C32.8333 2.16 33.16 2.3 33.44 2.58C33.72 2.86 33.86 3.18 33.86 3.54C33.86 3.91333 33.72 4.24 33.44 4.52C33.16 4.78667 32.8333 4.92 32.46 4.92C32.0733 4.92 31.74 4.78667 31.46 4.52C31.1933 4.24 31.06 3.91333 31.06 3.54ZM38.7553 7.44V8.58C38.8086 8.44667 38.922 8.26 39.0953 8.02C39.2686 7.78 39.4953 7.54667 39.7753 7.32C40.0686 7.08 40.4153 6.87333 40.8153 6.7C41.2153 6.51333 41.6886 6.41333 42.2353 6.4C43.1953 6.38667 43.962 6.64667 44.5353 7.18C45.1086 7.7 45.3953 8.32 45.3953 9.04V16.42H43.4353V10.02C43.4353 9.5 43.3153 9.04 43.0753 8.64C42.8486 8.22667 42.3953 8.02667 41.7153 8.04C41.382 8.05333 41.0353 8.17333 40.6753 8.4C40.3286 8.61333 40.0086 8.88667 39.7153 9.22C39.4353 9.56667 39.202 9.95333 39.0153 10.38C38.8286 10.7933 38.7353 11.2067 38.7353 11.62V16.42H36.7753V9.3C36.7753 9.12667 36.7686 8.97333 36.7553 8.84C36.7553 8.69333 36.742 8.56 36.7153 8.44C36.702 8.32 36.662 8.22 36.5953 8.14C36.542 8.04667 36.4686 7.96 36.3753 7.88C36.282 7.81333 36.1686 7.76667 36.0353 7.74C35.9153 7.7 35.7953 7.68 35.6753 7.68C35.4753 7.68 35.322 7.62667 35.2153 7.52C35.122 7.4 35.0753 7.26 35.0753 7.1C35.0753 6.96667 35.122 6.84667 35.2153 6.74C35.322 6.63333 35.442 6.58 35.5753 6.58H37.6953C38.0153 6.58 38.2686 6.69333 38.4553 6.92C38.6553 7.13333 38.7553 7.30667 38.7553 7.44ZM52.3616 16.62C51.6416 16.62 50.9682 16.5 50.3416 16.26C49.7149 16.02 49.1616 15.66 48.6816 15.18C48.2149 14.7133 47.8482 14.14 47.5816 13.46C47.3149 12.78 47.1816 12.0067 47.1816 11.14C47.1816 10.38 47.3016 9.70667 47.5416 9.12C47.7949 8.52 48.1416 8.02 48.5816 7.62C49.0349 7.22 49.5616 6.91333 50.1616 6.7C50.7749 6.48667 51.4416 6.38 52.1616 6.38C52.6816 6.38 53.2016 6.48 53.7216 6.68C54.2549 6.86667 54.7282 7.14 55.1416 7.5C55.5682 7.87333 55.9149 8.33333 56.1816 8.88C56.4482 9.41333 56.5816 10.0267 56.5816 10.72V11.86H49.2816C49.3749 12.86 49.7149 13.66 50.3016 14.26C50.9016 14.8467 51.7549 15.1933 52.8616 15.3C53.0482 15.3267 53.4082 15.3133 53.9416 15.26C54.4882 15.2067 55.0416 15.06 55.6016 14.82C55.7616 14.7533 55.9016 14.7533 56.0216 14.82C56.1549 14.8867 56.2482 14.98 56.3016 15.1C56.3549 15.2333 56.3616 15.3733 56.3216 15.52C56.2816 15.6667 56.1749 15.7867 56.0016 15.88C55.4949 16.16 54.9616 16.3533 54.4016 16.46C53.8416 16.5667 53.1616 16.62 52.3616 16.62ZM52.1016 7.6C51.4482 7.6 50.8349 7.82 50.2616 8.26C49.7016 8.7 49.3749 9.43333 49.2816 10.46H54.5416C54.5416 9.42 54.2882 8.68667 53.7816 8.26C53.2749 7.82 52.7149 7.6 52.1016 7.6ZM58.8294 16.42V9.3C58.8294 9.12667 58.8227 8.97333 58.8094 8.84C58.8094 8.69333 58.796 8.56 58.7694 8.44C58.756 8.32 58.716 8.22 58.6494 8.14C58.596 8.04667 58.5227 7.96 58.4294 7.88C58.336 7.82667 58.2227 7.78667 58.0894 7.76C57.9694 7.72 57.8494 7.7 57.7294 7.7C57.5294 7.7 57.376 7.64 57.2694 7.52C57.176 7.4 57.1294 7.26 57.1294 7.1C57.1294 6.96667 57.176 6.84667 57.2694 6.74C57.376 6.63333 57.496 6.58 57.6294 6.58H59.7494C60.0694 6.58 60.3227 6.68667 60.5094 6.9C60.7094 7.11333 60.8094 7.27333 60.8094 7.38V8.1C60.8227 8.02 60.896 7.88667 61.0294 7.7C61.176 7.51333 61.376 7.32667 61.6294 7.14C61.8827 6.95333 62.1827 6.79333 62.5294 6.66C62.8894 6.51333 63.3027 6.44 63.7694 6.44H64.8694V8.44C63.5227 8.24 62.5094 8.38667 61.8294 8.88C61.1494 9.37333 60.8094 10.26 60.8094 11.54V16.42H58.8294Z" fill="#5750EC"/>
<circle r="1.7098" transform="matrix(1 0 0 -1 14.6768 9.53745)" fill="#5750EC"/>
<circle r="1.7098" transform="matrix(1 0 0 -1 8.52157 8.85349)" fill="#5750EC"/>
<circle r="1.7098" transform="matrix(1 0 0 -1 11.9411 14.3249)" fill="#5750EC"/>
<path d="M9.92813 6.86323C-0.721414 3.86075 9.92811 15.5773 9.92811 15.5773L4.95403 15.5773L4.80439 5.34676L14.9321 4.35094C14.9321 4.35094 20.5777 9.8657 9.92813 6.86323Z" fill="#5750EC"/>
</svg>
