<svg width="87" height="26" viewBox="0 0 87 26" fill="none" xmlns="http://www.w3.org/2000/svg">
<path d="M33.2836 6.01331V7.8333C32.8036 7.60664 32.2903 7.39331 31.7436 7.1933C31.197 6.9933 30.5236 6.8933 29.7236 6.8933C29.0303 6.8933 28.4703 7.05997 28.0436 7.39331C27.6303 7.71331 27.4236 8.17331 27.4236 8.77331C27.4236 9.26664 27.5436 9.68664 27.7836 10.0333C28.0236 10.3666 28.4503 10.7266 29.0636 11.1133C29.4903 11.3933 29.997 11.6733 30.5836 11.9533C31.1703 12.2333 31.7303 12.5533 32.2636 12.9133C32.797 13.2733 33.2503 13.7 33.6236 14.1933C33.997 14.6733 34.1836 15.26 34.1836 15.9533C34.1836 16.9533 33.897 17.7933 33.3236 18.4733C32.7503 19.14 31.9503 19.6 30.9236 19.8533C30.4436 19.9733 29.9503 20.0466 29.4436 20.0733C28.9503 20.1133 28.477 20.12 28.0236 20.0933C27.5703 20.0533 27.1503 19.9933 26.7636 19.9133C26.3903 19.8466 26.097 19.76 25.8836 19.6533C25.6036 19.5466 25.417 19.38 25.3236 19.1533C25.2303 18.9133 25.2036 18.6933 25.2436 18.4933C25.2836 18.28 25.3903 18.12 25.5636 18.0133C25.737 17.8933 25.9636 17.8866 26.2436 17.9933C26.5236 18.1266 26.877 18.2533 27.3036 18.3733C27.7303 18.48 28.1703 18.5533 28.6236 18.5933C29.077 18.6333 29.5236 18.62 29.9636 18.5533C30.417 18.4866 30.8103 18.3266 31.1436 18.0733C31.3703 17.9133 31.577 17.6733 31.7636 17.3533C31.9503 17.02 32.0436 16.64 32.0436 16.2133C32.0436 15.8 31.897 15.4466 31.6036 15.1533C31.3236 14.8466 30.9636 14.56 30.5236 14.2933C30.0703 14.0266 29.557 13.7533 28.9836 13.4733C28.4103 13.18 27.837 12.8266 27.2636 12.4133C26.6903 12.0133 26.2236 11.5733 25.8636 11.0933C25.5036 10.6 25.3236 9.95331 25.3236 9.15331C25.3236 7.92664 25.7636 7.01331 26.6436 6.41331C27.5236 5.8133 28.6436 5.5133 30.0036 5.5133C30.337 5.5133 30.657 5.5333 30.9636 5.57331C31.2836 5.59997 31.577 5.63997 31.8436 5.6933C32.1236 5.74664 32.3836 5.80664 32.6236 5.8733C32.8636 5.92664 33.0836 5.97331 33.2836 6.01331ZM38.4036 19.9333H36.4236V12.9533C36.4236 12.4866 36.4036 12.14 36.3636 11.9133C36.337 11.6866 36.2303 11.5133 36.0436 11.3933C35.9503 11.3533 35.837 11.3133 35.7036 11.2733C35.5836 11.2333 35.4636 11.2133 35.3436 11.2133C35.1436 11.2133 34.9903 11.1533 34.8836 11.0333C34.7903 10.9133 34.7436 10.7733 34.7436 10.6133C34.7436 10.48 34.8036 10.36 34.9236 10.2533C35.057 10.1466 35.1903 10.0933 35.3236 10.0933H37.3436C37.6636 10.0933 37.917 10.2133 38.1036 10.4533C38.3036 10.68 38.4036 10.9066 38.4036 11.1333V19.9333ZM35.7836 7.05331C35.7836 6.69331 35.917 6.37331 36.1836 6.09331C36.4636 5.81331 36.797 5.67331 37.1836 5.67331C37.557 5.67331 37.8836 5.81331 38.1636 6.09331C38.4436 6.37331 38.5836 6.69331 38.5836 7.05331C38.5836 7.42664 38.4436 7.75331 38.1636 8.03331C37.8836 8.29997 37.557 8.43331 37.1836 8.43331C36.797 8.43331 36.4636 8.29997 36.1836 8.03331C35.917 7.75331 35.7836 7.42664 35.7836 7.05331ZM43.4789 10.9533V12.0933C43.5323 11.96 43.6456 11.7733 43.8189 11.5333C43.9923 11.2933 44.2189 11.06 44.4989 10.8333C44.7923 10.5933 45.1389 10.3866 45.5389 10.2133C45.9389 10.0266 46.4123 9.92664 46.9589 9.91331C47.9189 9.89997 48.6856 10.16 49.2589 10.6933C49.8323 11.2133 50.1189 11.8333 50.1189 12.5533V19.9333H48.1589V13.5333C48.1589 13.0133 48.0389 12.5533 47.7989 12.1533C47.5723 11.74 47.1189 11.54 46.4389 11.5533C46.1056 11.5666 45.7589 11.6866 45.3989 11.9133C45.0523 12.1266 44.7323 12.4 44.4389 12.7333C44.1589 13.08 43.9256 13.4666 43.7389 13.8933C43.5523 14.3066 43.4589 14.72 43.4589 15.1333V19.9333H41.4989V12.8133C41.4989 12.64 41.4923 12.4866 41.4789 12.3533C41.4789 12.2066 41.4656 12.0733 41.4389 11.9533C41.4256 11.8333 41.3856 11.7333 41.3189 11.6533C41.2656 11.56 41.1923 11.4733 41.0989 11.3933C41.0056 11.3266 40.8923 11.28 40.7589 11.2533C40.6389 11.2133 40.5189 11.1933 40.3989 11.1933C40.1989 11.1933 40.0456 11.14 39.9389 11.0333C39.8456 10.9133 39.7989 10.7733 39.7989 10.6133C39.7989 10.48 39.8456 10.36 39.9389 10.2533C40.0456 10.1466 40.1656 10.0933 40.2989 10.0933H42.4189C42.7389 10.0933 42.9923 10.2066 43.1789 10.4333C43.3789 10.6466 43.4789 10.82 43.4789 10.9533ZM57.0852 20.1333C56.3652 20.1333 55.6919 20.0133 55.0652 19.7733C54.4385 19.5333 53.8852 19.1733 53.4052 18.6933C52.9385 18.2266 52.5719 17.6533 52.3052 16.9733C52.0385 16.2933 51.9052 15.52 51.9052 14.6533C51.9052 13.8933 52.0252 13.22 52.2652 12.6333C52.5185 12.0333 52.8652 11.5333 53.3052 11.1333C53.7585 10.7333 54.2852 10.4266 54.8852 10.2133C55.4985 9.99997 56.1652 9.8933 56.8852 9.8933C57.4052 9.8933 57.9252 9.99331 58.4452 10.1933C58.9785 10.38 59.4519 10.6533 59.8652 11.0133C60.2919 11.3866 60.6385 11.8466 60.9052 12.3933C61.1719 12.9266 61.3052 13.54 61.3052 14.2333V15.3733H54.0052C54.0985 16.3733 54.4385 17.1733 55.0252 17.7733C55.6252 18.36 56.4785 18.7066 57.5852 18.8133C57.7719 18.84 58.1319 18.8266 58.6652 18.7733C59.2119 18.72 59.7652 18.5733 60.3252 18.3333C60.4852 18.2666 60.6252 18.2666 60.7452 18.3333C60.8785 18.4 60.9719 18.4933 61.0252 18.6133C61.0785 18.7466 61.0852 18.8866 61.0452 19.0333C61.0052 19.18 60.8985 19.3 60.7252 19.3933C60.2185 19.6733 59.6852 19.8666 59.1252 19.9733C58.5652 20.08 57.8852 20.1333 57.0852 20.1333ZM56.8252 11.1133C56.1719 11.1133 55.5585 11.3333 54.9852 11.7733C54.4252 12.2133 54.0985 12.9466 54.0052 13.9733H59.2652C59.2652 12.9333 59.0119 12.2 58.5052 11.7733C57.9985 11.3333 57.4385 11.1133 56.8252 11.1133ZM63.553 19.9333V12.8133C63.553 12.64 63.5463 12.4866 63.533 12.3533C63.533 12.2066 63.5197 12.0733 63.493 11.9533C63.4797 11.8333 63.4397 11.7333 63.373 11.6533C63.3197 11.56 63.2463 11.4733 63.153 11.3933C63.0597 11.34 62.9463 11.3 62.813 11.2733C62.693 11.2333 62.573 11.2133 62.453 11.2133C62.253 11.2133 62.0997 11.1533 61.993 11.0333C61.8997 10.9133 61.853 10.7733 61.853 10.6133C61.853 10.48 61.8997 10.36 61.993 10.2533C62.0997 10.1466 62.2197 10.0933 62.353 10.0933H64.473C64.793 10.0933 65.0463 10.2 65.233 10.4133C65.433 10.6266 65.533 10.7866 65.533 10.8933V11.6133C65.5463 11.5333 65.6197 11.4 65.753 11.2133C65.8997 11.0266 66.0997 10.84 66.353 10.6533C66.6063 10.4666 66.9063 10.3066 67.253 10.1733C67.613 10.0266 68.0263 9.95331 68.493 9.95331H69.593V11.9533C68.2463 11.7533 67.233 11.9 66.553 12.3933C65.873 12.8866 65.533 13.7733 65.533 15.0533V19.9333H63.553Z" fill="#5750EC"/>
<circle r="2.12961" transform="matrix(1 0 0 -1 18.0935 12.3925)" fill="#5750EC"/>
<circle r="2.12961" transform="matrix(1 0 0 -1 10.4268 11.5406)" fill="#5750EC"/>
<circle r="2.12961" transform="matrix(1 0 0 -1 14.686 18.3553)" fill="#5750EC"/>
<path d="M12.1788 9.06164C-1.08551 5.32197 12.1788 19.9153 12.1788 19.9153L5.98342 19.9153L5.79703 7.17284L18.4114 5.93252C18.4114 5.93252 25.4431 12.8013 12.1788 9.06164Z" fill="#5750EC"/>
</svg>
